<svg width="242" height="242" viewBox="0 0 242 242" fill="none" xmlns="http://www.w3.org/2000/svg">
<path d="M173.7 139.409C187.015 146.031 200.621 133.749 202.5 118.998C203.39 112.012 203.482 104.766 202.683 97.3885C201.308 84.7024 191.742 74.6445 179.435 71.2722C161.608 66.3874 142.802 64.7147 123.622 66.7935C104.422 68.8745 86.3937 74.547 70.0142 83.1525C58.7284 89.0818 51.5493 100.946 52.923 113.62C53.6255 120.102 54.9788 126.337 56.9017 132.254C61.9421 147.764 79.273 158.502 91.9779 148.276L113.413 131.024C123.677 122.763 137.268 121.289 149.064 127.156L173.7 139.409Z" fill="white"/>
<path d="M142.356 150.862C134.343 152.823 125.883 151.627 118.728 147.521C117.522 146.828 115.982 147.245 115.289 148.452C114.597 149.659 115.013 151.199 116.22 151.891C124.497 156.641 134.285 158.025 143.554 155.756C144.906 155.426 145.733 154.062 145.402 152.71C145.072 151.359 143.708 150.531 142.356 150.862Z" fill="white"/>
<path fill-rule="evenodd" clip-rule="evenodd" d="M197.001 143.202C195.31 144.506 193.472 145.628 191.524 146.519C180.13 173.586 150.188 191.018 123.537 193.833C87.9574 197.591 41.2029 177.099 36.5549 133.095C33.3131 102.403 49.5173 83.1221 74.0707 72.7387C89.2024 65.7839 105.556 61.1522 122.808 59.2824C142.957 57.0986 162.715 58.8571 181.432 63.9857C196.358 68.0757 208.445 80.4353 210.194 96.5744C211.057 104.541 210.959 112.382 209.995 119.953C208.815 129.211 203.979 137.823 197.001 143.202ZM202.333 120.124C201.386 125.727 198.76 130.906 195.132 134.734C189.54 140.633 181.569 143.323 173.7 139.409L149.064 127.156C137.268 121.289 123.677 122.763 113.413 131.024L91.9779 148.276C79.273 158.502 61.9421 147.764 56.9017 132.254C54.9788 126.337 53.6255 120.102 52.923 113.62C51.5493 100.946 58.7284 89.0818 70.0142 83.1525C86.3937 74.547 104.422 68.8745 123.622 66.7935C133.46 65.7272 143.2 65.6479 152.76 66.4829C161.837 67.2758 170.752 68.893 179.435 71.2722C191.742 74.6445 201.308 84.7024 202.683 97.3885C203.482 104.766 203.39 112.012 202.5 118.998C202.452 119.375 202.396 119.75 202.333 120.124ZM118.728 147.521C125.883 151.627 134.343 152.823 142.356 150.862C143.708 150.531 145.072 151.359 145.402 152.71C145.733 154.062 144.906 155.426 143.554 155.756C134.285 158.025 124.497 156.641 116.22 151.891C115.013 151.199 114.597 149.659 115.289 148.452C115.982 147.245 117.522 146.828 118.728 147.521Z" fill="black"/>
</svg>
