<svg width="801" height="242" viewBox="0 0 801 242" fill="none" xmlns="http://www.w3.org/2000/svg">
<g clip-path="url(#clip0_2022_2)">
<rect x="31.6933" y="0.161076" width="241.613" height="241.613" rx="120.807" fill="#2558DC"/>
<rect x="31.6933" y="0.161076" width="241.613" height="241.613" rx="120.807" stroke="black" stroke-width="0.322151"/>
<path d="M205.233 139.409C218.547 146.031 232.153 133.749 234.032 118.998C234.922 112.012 235.015 104.766 234.215 97.3885C232.84 84.7024 223.274 74.6445 210.967 71.2722C193.141 66.3874 174.335 64.7147 155.154 66.7935C135.954 68.8745 117.926 74.547 101.547 83.1525C90.2609 89.0818 83.0818 100.946 84.4554 113.62C85.1579 120.102 86.5113 126.337 88.4341 132.254C93.4746 147.764 110.805 158.502 123.51 148.276L144.946 131.024C155.21 122.763 168.8 121.289 180.597 127.156L205.233 139.409Z" fill="white"/>
<path d="M173.889 150.862C165.876 152.823 157.416 151.627 150.261 147.521C149.054 146.828 147.514 147.245 146.822 148.452C146.129 149.659 146.546 151.199 147.753 151.891C156.03 156.641 165.817 158.025 175.087 155.756C176.438 155.426 177.266 154.062 176.935 152.71C176.604 151.359 175.24 150.531 173.889 150.862Z" fill="white"/>
<path fill-rule="evenodd" clip-rule="evenodd" d="M228.534 143.202C226.842 144.506 225.004 145.628 223.056 146.519C211.662 173.586 181.721 191.018 155.069 193.833C119.49 197.591 72.7352 177.099 68.0873 133.095C64.8455 102.403 81.0496 83.1221 105.603 72.7387C120.735 65.7839 137.088 61.1522 154.34 59.2824C174.489 57.0986 194.248 58.8571 212.964 63.9857C227.89 68.0757 239.977 80.4353 241.726 96.5744C242.59 104.541 242.492 112.382 241.527 119.953C240.348 129.211 235.511 137.823 228.534 143.202ZM233.866 120.124C232.918 125.727 230.292 130.906 226.664 134.734C221.073 140.633 213.102 143.323 205.233 139.409L180.597 127.156C168.8 121.289 155.21 122.763 144.946 131.024L123.51 148.276C110.805 158.502 93.4745 147.764 88.434 132.254C86.5111 126.337 85.1578 120.102 84.4553 113.62C83.0816 100.946 90.2608 89.0818 101.547 83.1525C117.926 74.547 135.954 68.8745 155.154 66.7935C164.993 65.7272 174.732 65.6479 184.292 66.4829C193.37 67.2758 202.285 68.893 210.967 71.2722C223.274 74.6445 232.84 84.7024 234.215 97.3885C235.015 104.766 234.922 112.012 234.032 118.998C233.984 119.375 233.929 119.75 233.866 120.124ZM150.261 147.521C157.416 151.627 165.876 152.823 173.888 150.862C175.24 150.531 176.604 151.359 176.935 152.71C177.266 154.062 176.438 155.426 175.086 155.756C165.817 158.025 156.03 156.641 147.753 151.891C146.546 151.199 146.129 149.659 146.821 148.452C147.514 147.245 149.054 146.828 150.261 147.521Z" fill="black"/>
<path d="M339.654 105.968H305.904V101.156H301.092V96.3438H296.28V86.6868H305.904V91.5317H310.716V96.3438H334.842V91.5317H339.654V81.8748H334.842V77.0627H310.716V72.2178H301.092V67.4058H296.28V48.1248H301.092V43.3127H305.904V38.4678H339.654V43.3127H344.466V48.1248H349.311V57.7817H339.654V52.9368H334.842V48.1248H310.716V52.9368H305.904V62.5938H310.716V67.4058H334.842V72.2178H344.466V77.0627H349.311V96.3438H344.466V101.156H339.654V105.968ZM392.652 105.968H368.526V101.156H363.714V96.3438H358.902V67.4058H363.714V62.5938H368.526V57.7817H392.652V62.5938H397.464V67.4058H402.276V84.2808H368.526V91.5317H373.338V96.3438H387.807V91.5317H402.276V96.3438H397.464V101.156H392.652V105.968ZM368.526 77.0627H392.652V72.2178H387.807V67.4058H373.338V72.2178H368.526V77.0627ZM421.524 105.968H411.9V57.7817H421.524V62.5938H426.336V57.7817H443.211V62.5938H448.056V67.4058H452.868V105.968H443.211V72.2178H438.399V67.4058H426.336V72.2178H421.524V105.968ZM491.43 105.968H472.149V101.156H467.337V96.3438H462.525V67.4058H467.337V62.5938H472.149V57.7817H491.43V62.5938H496.275V38.4678H505.899V105.968H496.275V101.156H491.43V105.968ZM476.961 96.3438H491.43V91.5317H496.275V72.2178H491.43V67.4058H476.961V72.2178H472.149V91.5317H476.961V96.3438ZM573.333 105.968H544.395V101.156H539.583V96.3438H534.771V38.4678H544.395V91.5317H549.207V96.3438H568.521V91.5317H573.333V38.4678H582.957V96.3438H578.145V101.156H573.333V105.968ZM602.271 105.968H592.647V57.7817H602.271V62.5938H607.083V57.7817H623.958V62.5938H628.803V67.4058H633.615V105.968H623.958V72.2178H619.146V67.4058H607.083V72.2178H602.271V105.968ZM652.896 50.5308H643.272V40.9067H652.896V50.5308ZM652.896 105.968H643.272V57.7817H652.896V105.968ZM686.613 105.968H672.144V101.156H667.332V64.9998H660.114V57.7817H667.332V43.3127H676.989V57.7817H686.613V64.9998H676.989V96.3438H686.613V105.968ZM705.927 125.249H691.491V115.592H705.927V105.968H710.772V96.3438H705.927V86.6868H701.115V77.0627H696.303V67.4058H691.491V57.7817H701.115V67.4058H705.927V77.0627H710.772V86.6868H720.396V77.0627H725.241V67.4058H730.053V57.7817H739.677V67.4058H734.865V77.0627H730.053V86.6868H725.241V96.3438H720.396V105.968H715.584V115.592H710.772V120.404H705.927V125.249ZM322.779 201.968H313.155V144.125H293.874V134.468H342.06V144.125H322.779V201.968ZM371.031 201.968H346.905V197.156H342.093V192.344H337.281V163.406H342.093V158.594H346.905V153.782H371.031V158.594H375.843V163.406H380.655V192.344H375.843V197.156H371.031V201.968ZM351.717 192.344H366.186V187.532H371.031V168.218H366.186V163.406H351.717V168.218H346.905V187.532H351.717V192.344ZM424.029 201.968H399.903V197.156H395.091V192.344H390.279V163.406H395.091V158.594H399.903V153.782H424.029V158.594H428.841V163.406H433.653V192.344H428.841V197.156H424.029V201.968ZM404.715 192.344H419.184V187.532H424.029V168.218H419.184V163.406H404.715V168.218H399.903V187.532H404.715V192.344ZM452.901 201.968H443.277V134.468H452.901V201.968ZM472.149 201.968H462.525V134.468H472.149V173.063H476.961V168.218H481.806V163.406H486.618V158.594H491.43V153.782H503.493V158.594H498.681V163.406H493.836V168.218H489.024V173.063H484.212V182.687H489.024V187.532H493.836V192.344H498.681V197.156H503.493V201.968H491.43V197.156H486.618V192.344H481.806V187.532H476.961V182.687H472.149V201.968ZM520.401 146.531H510.777V136.907H520.401V146.531ZM520.401 201.968H510.777V153.782H520.401V201.968ZM554.118 201.968H539.649V197.156H534.837V161H527.619V153.782H534.837V139.313H544.494V153.782H554.118V161H544.494V192.344H554.118V201.968Z" fill="white"/>
</g>
<defs>
<clipPath id="clip0_2022_2">
<rect width="801" height="241.935" fill="white"/>
</clipPath>
</defs>
</svg>
